<mxfile host="app.diagrams.net" modified="2024-06-02T19:29:00.766Z" agent="Mozilla/5.0 (Windows NT 10.0; Win64; x64) AppleWebKit/537.36 (KHTML, like Gecko) Chrome/125.0.0.0 Safari/537.36" version="24.4.13" etag="G6fClRUcR0e_wpIqn8hI" type="github">
  <diagram name="PÃ¡gina-1" id="zKzv10zLB43r3YU76bhL">
    <mxGraphModel>
      <root>
        <mxCell id="0" />
        <mxCell id="1" parent="0" />
      </root>
    </mxGraphModel>
  </diagram>
</mxfile>
